<svg width="20" height="20" viewBox="0 0 20 20" fill="none" xmlns="http://www.w3.org/2000/svg">
<path fill-rule="evenodd" clip-rule="evenodd" d="M5.75744 2.42533C6.88266 1.30011 8.40878 0.667969 10.0001 0.667969C11.5914 0.667969 13.1175 1.30011 14.2427 2.42533C15.3679 3.55055 16.0001 5.07667 16.0001 6.66797C16.0001 9.43729 16.5921 11.1443 17.128 12.1266C17.3973 12.6203 17.6579 12.9412 17.8354 13.1287C17.9244 13.2226 17.9933 13.2838 18.0328 13.3167C18.0522 13.3328 18.0645 13.3422 18.0688 13.3455C18.4256 13.5921 18.5832 14.0414 18.4572 14.4578C18.3295 14.8795 17.9407 15.168 17.5001 15.168H2.50008C2.05941 15.168 1.67068 14.8795 1.54299 14.4578C1.41693 14.0414 1.57456 13.5921 1.93131 13.3455C1.93508 13.3429 1.93888 13.3403 1.9427 13.3377L1.94057 13.3391L1.93666 13.3418L1.93131 13.3455C1.93564 13.3422 1.94799 13.3328 1.96732 13.3167C2.00686 13.2838 2.07571 13.2226 2.16475 13.1287C2.3423 12.9412 2.60289 12.6203 2.87218 12.1266C3.40801 11.1443 4.00008 9.43729 4.00008 6.66797C4.00008 5.07667 4.63222 3.55055 5.75744 2.42533ZM15.4184 13.168H4.58172C4.59715 13.1404 4.61257 13.1126 4.62797 13.0843C5.34215 11.775 6.00008 9.73198 6.00008 6.66797C6.00008 5.6071 6.4215 4.58969 7.17165 3.83954C7.9218 3.0894 8.93921 2.66797 10.0001 2.66797C11.0609 2.66797 12.0784 3.0894 12.8285 3.83954C13.5787 4.58969 14.0001 5.6071 14.0001 6.66797C14.0001 9.73198 14.658 11.775 15.3722 13.0843C15.3876 13.1126 15.403 13.1404 15.4184 13.168ZM18.0561 13.3368L18.0548 13.3359L17.5001 14.168C18.0548 13.3359 18.0561 13.3368 18.0561 13.3368Z" fill="#686870"/>
<path fill-rule="evenodd" clip-rule="evenodd" d="M8.06089 16.6352C8.53862 16.358 9.15054 16.5207 9.42767 16.9984C9.48627 17.0994 9.57038 17.1833 9.67159 17.2416C9.77279 17.2999 9.88754 17.3305 10.0043 17.3305C10.1211 17.3305 10.2359 17.2999 10.3371 17.2416C10.4383 17.1833 10.5224 17.0994 10.581 16.9984C10.8581 16.5207 11.47 16.358 11.9478 16.6352C12.4255 16.9123 12.5881 17.5242 12.311 18.0019C12.0766 18.406 11.7401 18.7415 11.3353 18.9746C10.9305 19.2078 10.4715 19.3305 10.0043 19.3305C9.53716 19.3305 9.07819 19.2078 8.67336 18.9746C8.26854 18.7415 7.93208 18.406 7.69767 18.0019C7.42054 17.5242 7.58317 16.9123 8.06089 16.6352Z" fill="#686870"/>
</svg>
