<svg width="38" height="38" viewBox="0 0 38 38" fill="none" xmlns="http://www.w3.org/2000/svg">
<path fill-rule="evenodd" clip-rule="evenodd" d="M11.0478 7.57778C9.03722 8.78413 7.98899 10.3304 7.98899 11.8754C7.98899 13.4203 9.03722 14.9666 11.0478 16.1729C13.0412 17.369 15.8508 18.1367 19.0004 18.1367C22.1499 18.1367 24.9595 17.369 26.9529 16.1729C28.9635 14.9666 30.0117 13.4203 30.0117 11.8754C30.0117 10.3304 28.9635 8.78413 26.9529 7.57778C24.9595 6.38175 22.1499 5.61399 19.0004 5.61399C15.8508 5.61399 13.0412 6.38175 11.0478 7.57778ZM10.1591 6.09666C12.4636 4.71395 15.5915 3.88672 19.0004 3.88672C22.4092 3.88672 25.5371 4.71395 27.8416 6.09666C30.1289 7.46905 31.739 9.4853 31.739 11.8754C31.739 14.2654 30.1289 16.2817 27.8416 17.6541C25.5371 19.0368 22.4092 19.864 19.0004 19.864C15.5915 19.864 12.4636 19.0368 10.1591 17.6541C7.8718 16.2817 6.26172 14.2654 6.26172 11.8754C6.26172 9.4853 7.8718 7.46905 10.1591 6.09666Z" fill="#86868B"/>
<path d="M26.125 11.875C26.125 13.8425 22.935 15.4375 19 15.4375C15.065 15.4375 11.875 13.8425 11.875 11.875C11.875 9.90749 15.065 8.3125 19 8.3125C22.935 8.3125 26.125 9.90749 26.125 11.875Z" fill="#9E9E9E"/>
<path fill-rule="evenodd" clip-rule="evenodd" d="M6.26172 11.8751C6.26172 11.875 6.26172 11.875 7.12536 11.875C7.98899 11.875 7.98899 11.875 7.98899 11.8751V26.125C7.98899 27.67 9.03722 29.2162 11.0478 30.4226C13.0412 31.6186 15.8508 32.3864 19.0004 32.3864C22.1499 32.3864 24.9595 31.6186 26.9529 30.4226C28.9635 29.2162 30.0117 27.67 30.0117 26.125V11.875H31.739V26.125C31.739 28.5151 30.1289 30.5313 27.8416 31.9037C25.5371 33.2864 22.4092 34.1136 19.0004 34.1136C15.5915 34.1136 12.4636 33.2864 10.1591 31.9037C7.8718 30.5313 6.26172 28.5151 6.26172 26.125V11.8751Z" fill="#86868B"/>
</svg>
