<svg width="38" height="38" viewBox="0 0 38 38" fill="none" xmlns="http://www.w3.org/2000/svg">
<path d="M16.3242 6.87109V8.36899C16.3242 8.82988 15.0759 9.67484 13.0019 9.67484C10.9279 9.67484 9.67969 8.82988 9.67969 8.36899V6.87109C10.5631 7.31278 11.6961 7.58163 13.0019 7.58163C14.3078 7.60084 15.46 7.33198 16.3242 6.87109Z" fill="#9E9E9E"/>
<path d="M20.4119 10.5195H18.6836V16.9144H20.4119V10.5195Z" fill="#86868B"/>
<path d="M13.0181 31.9854C8.8701 31.9854 5.60547 30.1034 5.60547 27.7222V10.5156H7.33381V27.7222C7.33381 28.9128 9.75348 30.2571 13.0181 30.2571V31.9854Z" fill="#86868B"/>
<path d="M13.0181 14.7834C8.8509 14.7834 5.60547 12.9206 5.60547 10.5202C5.60547 9.15669 6.66167 7.90845 8.48603 7.12109L9.17736 8.715C8.02514 9.2143 7.33381 9.88643 7.33381 10.5394C7.33381 11.73 9.75348 13.0743 13.0181 13.0743C16.2827 13.0743 18.7024 11.73 18.7024 10.5394C18.7024 9.90564 18.0111 9.2143 16.8589 8.715L17.5502 7.12109C19.3745 7.90845 20.4308 9.15669 20.4308 10.5202C20.4116 12.9206 17.1661 14.7834 13.0181 14.7834Z" fill="#86868B"/>
<path d="M18.0507 4.5625V8.38404C18.0507 8.53767 18.0315 8.6913 17.9931 8.84493C17.6474 10.3428 15.6118 11.399 13.0193 11.399C10.6189 11.399 8.7177 10.4965 8.14158 9.1906C8.02636 8.92175 7.96875 8.6529 7.96875 8.36484V4.5625H9.69709V8.38404C9.69709 8.84493 10.9645 9.6899 13.0193 9.6899C15.0741 9.6899 16.3416 8.84493 16.3416 8.38404V4.5625H18.0507Z" fill="#86868B"/>
<path d="M17.6087 3.27879C16.8406 2.22258 15.1122 1.53125 12.9998 1.53125C11.1754 1.53125 9.63915 2.04975 8.75578 2.87551C8.23728 3.35561 7.94922 3.93172 7.94922 4.56544C7.94922 5.52563 8.60215 6.33218 9.67756 6.88909C10.5609 7.33078 11.6939 7.59963 12.9998 7.59963C14.2865 7.59963 15.4387 7.33078 16.3221 6.88909C17.3975 6.35139 18.0504 5.52563 18.0504 4.56544C18.0504 4.08535 17.8968 3.66286 17.6087 3.27879ZM13.019 5.87129C10.9642 5.87129 9.69676 5.02633 9.69676 4.56544C9.69676 4.10455 10.9642 3.25959 13.019 3.25959C15.0738 3.25959 16.3413 4.10455 16.3413 4.56544C16.3221 5.02633 15.0738 5.87129 13.019 5.87129Z" fill="#86868B"/>
<path d="M16.3242 4.56757C16.3242 5.02846 15.0759 5.87343 13.0019 5.87343C10.9279 5.87343 9.67969 5.02846 9.67969 4.56757C9.67969 4.10668 10.9471 3.26172 13.0019 3.26172C15.0567 3.26172 16.3242 4.10668 16.3242 4.56757Z" fill="#9E9E9E"/>
<path d="M21.3357 16.0508C14.6528 16.0508 9.41016 18.9505 9.41016 22.6569C9.41016 26.3632 14.6528 29.263 21.3357 29.263C28.0186 29.263 33.2612 26.3632 33.2612 22.6569C33.2612 18.9505 28.0378 16.0508 21.3357 16.0508ZM30.4767 24.7885C28.7867 26.4016 25.2916 27.5346 21.3357 27.5346C17.3797 27.5346 13.8846 26.4016 12.1947 24.7693C11.5226 24.1356 11.1385 23.4058 11.1385 22.6569C11.1385 20.026 15.805 17.7791 21.3357 17.7791C26.8472 17.7791 31.5329 20.0068 31.5329 22.6569C31.5329 23.4058 31.1488 24.1356 30.4767 24.7885Z" fill="#86868B"/>
<path d="M21.3296 36.2729C16.5095 36.2729 13.2256 34.487 12.2846 31.3952L10.4219 25.2884L12.0734 24.7891L13.9362 30.8959C14.6275 33.2195 17.316 34.5446 21.3104 34.5446V36.2729H21.3296Z" fill="#86868B"/>
<path d="M21.3359 36.2726V34.5442C25.3303 34.5442 28.0188 33.2192 28.7102 30.8955L30.5729 24.7695L32.2245 25.2688L30.3617 31.3756C29.4399 34.4866 26.1561 36.2726 21.3359 36.2726Z" fill="#86868B"/>
<path d="M30.4773 24.7868C28.7873 26.3999 25.2923 27.5329 21.3363 27.5329C17.3803 27.5329 13.8852 26.3999 12.1953 24.7676C13.4244 23.1353 16.8426 21.6758 21.3363 21.6758C25.8492 21.695 29.2674 23.1353 30.4773 24.7868Z" fill="#9E9E9E"/>
</svg>
