<svg width="38" height="38" viewBox="0 0 38 38" fill="none" xmlns="http://www.w3.org/2000/svg">
<path fill-rule="evenodd" clip-rule="evenodd" d="M20.0196 4.85881C18.3275 5.85417 17.489 7.10433 17.489 8.31285C17.489 9.52138 18.3275 10.7715 20.0196 11.7669C21.6918 12.7505 24.0584 13.3867 26.7191 13.3867C29.3798 13.3867 31.7464 12.7505 33.4186 11.7669C35.1107 10.7715 35.9492 9.52138 35.9492 8.31285C35.9492 7.10433 35.1107 5.85417 33.4186 4.85881C31.7464 3.87518 29.3798 3.23899 26.7191 3.23899C24.0584 3.23899 21.6918 3.87518 20.0196 4.85881ZM19.1439 3.37001C21.1249 2.20468 23.8051 1.51172 26.7191 1.51172C29.6331 1.51172 32.3133 2.20468 34.2943 3.37001C36.2554 4.52359 37.6765 6.24219 37.6765 8.31285C37.6765 10.3835 36.2554 12.1021 34.2943 13.2557C32.3133 14.421 29.6331 15.114 26.7191 15.114C23.8051 15.114 21.1249 14.421 19.1439 13.2557C17.1828 12.1021 15.7617 10.3835 15.7617 8.31285C15.7617 6.24219 17.1828 4.52359 19.1439 3.37001Z" fill="#86868B"/>
<path d="M32.0625 8.3125C32.0625 9.62418 29.67 10.6875 26.7188 10.6875C23.7675 10.6875 21.375 9.62418 21.375 8.3125C21.375 7.00082 23.7675 5.9375 26.7188 5.9375C29.67 5.9375 32.0625 7.00082 32.0625 8.3125Z" fill="#9E9E9E"/>
<path fill-rule="evenodd" clip-rule="evenodd" d="M15.7617 8.3126C15.7617 8.31253 15.7617 8.3125 16.6254 8.3125C17.489 8.3125 17.489 8.31253 17.489 8.3126V20.1875C17.489 21.396 18.3275 22.6462 20.0196 23.6416C21.6918 24.6252 24.0584 25.2614 26.7191 25.2614C29.3798 25.2614 31.7464 24.6252 33.4186 23.6416C35.1107 22.6462 35.9492 21.396 35.9492 20.1875V8.3125H37.6765V20.1875C37.6765 22.2582 36.2554 23.9768 34.2943 25.1303C32.3133 26.2957 29.6331 26.9886 26.7191 26.9886C23.8051 26.9886 21.1249 26.2957 19.1439 25.1303C17.1828 23.9768 15.7617 22.2582 15.7617 20.1875V8.3126Z" fill="#86868B"/>
<path fill-rule="evenodd" clip-rule="evenodd" d="M3.3091 22.9251C3.76498 22.7849 4.24826 23.0407 4.38853 23.4966L6.09122 29.0303C6.42767 30.1238 7.28363 30.9798 8.37707 31.3162L19.8581 34.8488C20.7629 35.1272 21.7424 35.0221 22.5676 34.5579L30.4522 30.1229C30.8679 29.889 31.3945 30.0365 31.6283 30.4522C31.8622 30.8679 31.7147 31.3945 31.299 31.6283L23.4144 36.0634C22.1767 36.7596 20.7074 36.9173 19.3501 36.4997L7.8691 32.9671C6.22894 32.4624 4.945 31.1785 4.44033 29.5383L2.73764 24.0046C2.59737 23.5487 2.85322 23.0654 3.3091 22.9251Z" fill="#86868B"/>
<path d="M32.6042 32.7489C30.4731 30.309 21.7492 27.5931 14.7082 26.1849C5.80194 24.4037 -3.10431 26.1849 1.05194 19.6537C5.047 13.3757 29.1225 11.8135 33.8076 31.4512C34.1894 33.0515 33.0658 33.2773 32.6042 32.7489Z" fill="#9E9E9E"/>
<path fill-rule="evenodd" clip-rule="evenodd" d="M16.9166 15.2286C17.0323 15.6913 16.7509 16.1602 16.2882 16.2759C15.0366 16.5888 13.8171 17.502 12.7287 18.8553C11.6469 20.2003 10.7479 21.916 10.1235 23.7016C9.49857 25.4888 9.16442 27.3011 9.17682 28.8275C9.18953 30.3907 9.56122 31.4775 10.1429 32.0313C10.4884 32.3602 10.5019 32.9068 10.173 33.2523C9.84412 33.5977 9.29746 33.6112 8.95199 33.2823C7.86182 32.2445 7.46366 30.5708 7.44961 28.8416C7.43526 27.0755 7.81744 25.0635 8.49301 23.1315C9.1691 21.1979 10.1547 19.2995 11.3827 17.7727C12.6041 16.2542 14.1196 15.0377 15.8692 14.6002C16.332 14.4845 16.8009 14.7659 16.9166 15.2286ZM24.0551 17.6592C24.14 18.1286 23.8283 18.5779 23.3589 18.6627C22.4036 18.8354 21.3011 19.4665 20.2027 20.5071C19.1155 21.5372 18.0909 22.9145 17.2853 24.4676C15.6565 27.6079 15.0212 31.2577 16.276 34.0878C16.4694 34.5238 16.2726 35.034 15.8366 35.2274C15.4006 35.4207 14.8904 35.224 14.697 34.7879C13.1425 31.2821 14.0017 27.0468 15.7521 23.6723C16.6361 21.968 17.7723 20.4305 19.0147 19.2533C20.2461 18.0866 21.642 17.2178 23.0517 16.963C23.521 16.8782 23.9703 17.1899 24.0551 17.6592Z" fill="#86868B"/>
</svg>
