<svg width="38" height="38" viewBox="0 0 38 38" fill="none" xmlns="http://www.w3.org/2000/svg">
<path d="M14.25 13.6562C14.25 11.3608 12.3892 9.5 10.0938 9.5C7.79832 9.5 5.9375 11.3608 5.9375 13.6562" fill="#9E9E9E"/>
<path d="M32.0625 13.6562C32.0625 11.3608 30.2017 9.5 27.9062 9.5C25.6108 9.5 23.75 11.3608 23.75 13.6562" fill="#9E9E9E"/>
<path fill-rule="evenodd" clip-rule="evenodd" d="M11.0234 14.3017C11.5756 10.4275 14.9051 7.44922 18.9318 7.44922C22.8693 7.44922 26.1399 10.2971 26.7993 14.0453L25.0982 14.3446C24.5815 11.4078 22.0164 9.17649 18.9318 9.17649C15.7771 9.17649 13.166 11.5104 12.7334 14.5454L11.0234 14.3017Z" fill="#86868B"/>
<path fill-rule="evenodd" clip-rule="evenodd" d="M28.1094 14.1193C29.0334 13.6505 30.0785 13.3867 31.1828 13.3867C34.9389 13.3867 37.9839 16.4317 37.9839 20.1879C37.9839 21.7021 37.488 23.1031 36.65 24.2338L35.2623 23.2054C35.8873 22.362 36.2566 21.3193 36.2566 20.1879C36.2566 17.3856 33.985 15.114 31.1828 15.114C30.3563 15.114 29.5783 15.3109 28.8908 15.6597L28.1094 14.1193Z" fill="#86868B"/>
<path fill-rule="evenodd" clip-rule="evenodd" d="M0.324219 20.1879C0.324219 16.4317 3.36919 13.3867 7.12535 13.3867C8.34255 13.3867 9.4875 13.7072 10.4777 14.2691L9.62519 15.7714C8.88812 15.3531 8.03597 15.114 7.12535 15.114C4.32314 15.114 2.05149 17.3856 2.05149 20.1879C2.05149 21.3515 2.44218 22.4215 3.10002 23.2772L1.73066 24.3299C0.848888 23.183 0.324219 21.7455 0.324219 20.1879Z" fill="#86868B"/>
<path fill-rule="evenodd" clip-rule="evenodd" d="M0.324219 29.5233C0.324219 19.9555 8.08045 12.1992 17.6483 12.1992H20.3525C29.9203 12.1992 37.6765 19.9555 37.6765 29.5233C37.6765 30.0911 37.2161 30.5515 36.6483 30.5515H1.35246C0.78457 30.5515 0.324219 30.0911 0.324219 29.5233ZM2.06688 28.8242H35.9338C35.5682 20.5348 28.7321 13.9265 20.3525 13.9265H17.6483C9.26865 13.9265 2.4325 20.5348 2.06688 28.8242Z" fill="#86868B"/>
<path d="M16.625 19C16.625 19.6558 16.0933 20.1875 15.4375 20.1875C14.7817 20.1875 14.25 19.6558 14.25 19C14.25 18.3442 14.7817 17.8125 15.4375 17.8125C16.0933 17.8125 16.625 18.3442 16.625 19Z" fill="#9E9E9E"/>
<path d="M21.375 23.75C21.375 24.4058 20.8433 24.9375 20.1875 24.9375C19.5317 24.9375 19 24.4058 19 23.75C19 23.0942 19.5317 22.5625 20.1875 22.5625C20.8433 22.5625 21.375 23.0942 21.375 23.75Z" fill="#9E9E9E"/>
<path d="M29.6875 22.5625C29.6875 23.2183 29.1558 23.75 28.5 23.75C27.8442 23.75 27.3125 23.2183 27.3125 22.5625C27.3125 21.9067 27.8442 21.375 28.5 21.375C29.1558 21.375 29.6875 21.9067 29.6875 22.5625Z" fill="#9E9E9E"/>
<path d="M9.5 24.9375C9.5 25.5933 8.96834 26.125 8.3125 26.125C7.65666 26.125 7.125 25.5933 7.125 24.9375C7.125 24.2817 7.65666 23.75 8.3125 23.75C8.96834 23.75 9.5 24.2817 9.5 24.9375Z" fill="#9E9E9E"/>
</svg>
