<svg width="42" height="38" viewBox="0 0 42 38" fill="none" xmlns="http://www.w3.org/2000/svg">
<g filter="url(#filter0_d_4031_52421)">
<path fill-rule="evenodd" clip-rule="evenodd" d="M7.35988 15.8001C7.81576 15.6599 8.29904 15.9157 8.43931 16.3716L10.142 21.9053C10.4784 22.9988 11.3344 23.8548 12.4279 24.1912L23.9088 27.7238C24.8137 28.0022 25.7932 27.8971 26.6184 27.4329L34.503 22.9979C34.9187 22.764 35.4452 22.9115 35.6791 23.3272C35.9129 23.7429 35.7655 24.2695 35.3498 24.5033L27.4652 28.9384C26.2275 29.6346 24.7582 29.7923 23.4009 29.3747L11.9199 25.8421C10.2797 25.3374 8.99578 24.0535 8.49111 22.4133L6.78842 16.8796C6.64815 16.4237 6.904 15.9404 7.35988 15.8001Z" fill="#86868B"/>
<path d="M36.6549 25.6239C34.5238 23.184 25.8 20.4681 18.759 19.0599C9.85272 17.2787 0.946469 19.0599 5.10272 12.5287C9.09779 6.25072 33.1733 4.68845 37.8584 24.3262C38.2402 25.9265 37.1165 26.1523 36.6549 25.6239Z" fill="#9E9E9E"/>
<path fill-rule="evenodd" clip-rule="evenodd" d="M20.9673 8.10358C21.083 8.56631 20.8017 9.03521 20.339 9.15091C19.0874 9.46383 17.8679 10.377 16.7794 11.7303C15.6976 13.0753 14.7986 14.791 14.1743 16.5766C13.5494 18.3638 13.2152 20.1761 13.2276 21.7025C13.2403 23.2657 13.612 24.3525 14.1937 24.9063C14.5392 25.2352 14.5526 25.7818 14.2238 26.1273C13.8949 26.4727 13.3482 26.4862 13.0028 26.1573C11.9126 25.1195 11.5144 23.4458 11.5004 21.7166C11.486 19.9505 11.8682 17.9385 12.5438 16.0065C13.2199 14.0729 14.2055 12.1745 15.4335 10.6477C16.6549 9.12916 18.1704 7.91266 19.92 7.47521C20.3827 7.35952 20.8517 7.64085 20.9673 8.10358ZM28.1059 10.5342C28.1908 11.0036 27.879 11.4529 27.4097 11.5377C26.4544 11.7104 25.3518 12.3415 24.2535 13.3821C23.1663 14.4122 22.1417 15.7895 21.3361 17.3426C19.7073 20.4829 19.072 24.1326 20.3268 26.9628C20.5202 27.3988 20.3234 27.909 19.8874 28.1024C19.4513 28.2957 18.9411 28.099 18.7478 27.6629C17.1933 24.1571 18.0525 19.9218 19.8028 16.5473C20.6869 14.843 21.8231 13.3055 23.0655 12.1283C24.2969 10.9616 25.6928 10.0928 27.1024 9.83799C27.5718 9.75315 28.0211 10.0649 28.1059 10.5342Z" fill="#86868B"/>
</g>
<defs>
<filter id="filter0_d_4031_52421" x="-2" y="0" width="46" height="46" filterUnits="userSpaceOnUse" color-interpolation-filters="sRGB">
<feFlood flood-opacity="0" result="BackgroundImageFix"/>
<feColorMatrix in="SourceAlpha" type="matrix" values="0 0 0 0 0 0 0 0 0 0 0 0 0 0 0 0 0 0 127 0" result="hardAlpha"/>
<feOffset dy="4"/>
<feGaussianBlur stdDeviation="2"/>
<feComposite in2="hardAlpha" operator="out"/>
<feColorMatrix type="matrix" values="0 0 0 0 0 0 0 0 0 0 0 0 0 0 0 0 0 0 0.25 0"/>
<feBlend mode="normal" in2="BackgroundImageFix" result="effect1_dropShadow_4031_52421"/>
<feBlend mode="normal" in="SourceGraphic" in2="effect1_dropShadow_4031_52421" result="shape"/>
</filter>
</defs>
</svg>
