<svg width="38" height="38" viewBox="0 0 38 38" fill="none" xmlns="http://www.w3.org/2000/svg">
<path fill-rule="evenodd" clip-rule="evenodd" d="M10.0443 12.4869C10.2082 12.3038 10.4422 12.1992 10.6879 12.1992H27.3129C27.5585 12.1992 27.7925 12.3038 27.9564 12.4869C28.1202 12.6699 28.1983 12.9141 28.1712 13.1582L25.7962 34.5332C25.7476 34.9706 25.3779 35.3015 24.9379 35.3015H13.0629C12.6228 35.3015 12.2531 34.9706 12.2045 34.5332L9.82951 13.1582C9.80238 12.9141 9.88051 12.6699 10.0443 12.4869ZM11.6528 13.9265L13.8359 33.5742H24.1649L26.3479 13.9265H11.6528Z" fill="#86868B"/>
<path fill-rule="evenodd" clip-rule="evenodd" d="M7.44922 7.12536C7.44922 6.64838 7.83588 6.26172 8.31286 6.26172H29.6879C30.1648 6.26172 30.5515 6.64838 30.5515 7.12536V13.0629C30.5515 13.5398 30.1648 13.9265 29.6879 13.9265H8.31286C7.83588 13.9265 7.44922 13.5398 7.44922 13.0629V7.12536ZM9.17649 7.98899V12.1992H28.8242V7.98899H9.17649Z" fill="#86868B"/>
<path d="M26.125 22.5625C26.125 26.4975 22.935 29.6875 19 29.6875C15.065 29.6875 11.875 26.4975 11.875 22.5625C11.875 18.6275 15.065 15.4375 19 15.4375C22.935 15.4375 26.125 18.6275 26.125 22.5625Z" fill="#9E9E9E"/>
<path fill-rule="evenodd" clip-rule="evenodd" d="M9.85021 0.978597C9.96589 0.515865 10.4348 0.234526 10.8975 0.350209L15.6475 1.53771C15.8921 1.59886 16.0978 1.76383 16.2105 1.98933L18.5855 6.73933C18.7988 7.16595 18.6259 7.68471 18.1993 7.89802C17.7727 8.11133 17.2539 7.93841 17.0406 7.51179L14.8432 3.11707L10.4786 2.02591C10.0159 1.91023 9.73453 1.44133 9.85021 0.978597Z" fill="#86868B"/>
</svg>
