<svg viewBox="0 0 16 17" fill="none" xmlns="http://www.w3.org/2000/svg">
<path fill-rule="evenodd" clip-rule="evenodd" d="M12.566 4.34521C12.8179 4.59716 12.8179 5.00566 12.566 5.25761L4.82402 12.9995C4.57206 13.2515 4.16357 13.2515 3.91162 12.9995C3.65967 12.7476 3.65967 12.3391 3.91162 12.0871L11.6536 4.34521C11.9055 4.09326 12.314 4.09326 12.566 4.34521Z" fill="#1D1D1F"/>
<path fill-rule="evenodd" clip-rule="evenodd" d="M3.91162 4.34521C4.16357 4.09326 4.57206 4.09326 4.82402 4.34521L12.566 12.0871C12.8179 12.3391 12.8179 12.7476 12.566 12.9995C12.314 13.2515 11.9055 13.2515 11.6536 12.9995L3.91162 5.25761C3.65967 5.00566 3.65967 4.59716 3.91162 4.34521Z" fill="#1D1D1F"/>
</svg>
