<svg viewBox="0 0 20 20" fill="none" xmlns="http://www.w3.org/2000/svg">
<path fill-rule="evenodd" clip-rule="evenodd" d="M3.05895 5.73644C2.49287 6.69445 2.30657 7.9502 2.4865 9.02965C2.84041 11.1529 4.68175 13.0662 6.63543 14.5131C7.58821 15.2188 8.51969 15.7785 9.21421 16.162C9.53475 16.339 9.80319 16.4776 9.99786 16.5748C10.1925 16.4776 10.461 16.339 10.7815 16.162C11.4761 15.7785 12.4076 15.2188 13.3603 14.5131C15.314 13.0662 17.1554 11.1529 17.5093 9.02967C17.6892 7.95023 17.5028 6.69446 16.9367 5.73644C16.3917 4.81411 15.503 4.16667 14.1646 4.16667C12.8253 4.16667 12.0092 4.81832 11.4979 5.50001C11.2371 5.84768 11.0605 6.19976 10.9494 6.46636C10.8943 6.59855 10.8566 6.70666 10.8335 6.77846C10.822 6.81427 10.8142 6.84077 10.8098 6.85641L10.8056 6.87143L10.806 6.87013C10.8057 6.87102 10.8059 6.87055 10.8056 6.87143C10.8056 6.87173 10.8057 6.87125 10.8056 6.87143C10.7117 7.24061 10.3791 7.50001 9.99784 7.5C9.6166 7.49999 9.28413 7.24129 9.19024 6.87209C9.19019 6.87191 9.19031 6.87237 9.19024 6.87209L9.18591 6.85639C9.18148 6.84075 9.17369 6.81424 9.16218 6.77843C9.1391 6.70663 9.10142 6.59853 9.04634 6.46634C8.93526 6.19974 8.75863 5.84767 8.49787 5.49999C7.98662 4.81832 7.17049 4.16666 5.83114 4.16667C4.49262 4.16667 3.60395 4.81412 3.05895 5.73644ZM9.99786 6.66667C9.1894 6.86877 9.18949 6.86912 9.18958 6.86947L9.19 6.87115L9.19024 6.87209M9.99788 4.73413C9.94546 4.65653 9.88995 4.57832 9.83121 4.5C9.09246 3.515 7.82523 2.49999 5.83114 2.5C3.83621 2.50001 2.43321 3.51922 1.62407 4.88857C0.836016 6.22223 0.605725 7.88313 0.842511 9.30368C1.31069 12.1124 3.63602 14.3657 5.6435 15.8525C6.6713 16.6137 7.66901 17.2126 8.40855 17.621C8.77907 17.8256 9.08667 17.9834 9.3033 18.0908C9.41166 18.1445 9.49738 18.1857 9.55698 18.2139C9.58679 18.228 9.61007 18.2389 9.6264 18.2464L9.64563 18.2553L9.65123 18.2578L9.653 18.2586C9.65325 18.2587 9.6541 18.2591 9.99786 17.5L9.6541 18.2591C9.87259 18.3581 10.1231 18.3581 10.3416 18.2591L9.99786 17.5C10.3416 18.2591 10.3414 18.2592 10.3416 18.2591L10.3445 18.2578L10.3501 18.2553L10.3693 18.2464C10.3856 18.2389 10.4089 18.228 10.4387 18.2139C10.4983 18.1857 10.5841 18.1445 10.6924 18.0908C10.909 17.9834 11.2167 17.8256 11.5872 17.621C12.3267 17.2126 13.3245 16.6137 14.3523 15.8525C16.3598 14.3657 18.6851 12.1124 19.1532 9.30367C19.39 7.88311 19.1597 6.22221 18.3716 4.88856C17.5625 3.51923 16.1595 2.5 14.1646 2.5C12.1705 2.5 10.9033 3.51501 10.1646 4.49999C10.1058 4.57832 10.0503 4.65653 9.99788 4.73413Z" fill="#686870"/>
</svg>
