<svg width="20" height="20" viewBox="0 0 20 20" fill="none" xmlns="http://www.w3.org/2000/svg">
<path fill-rule="evenodd" clip-rule="evenodd" d="M3.72039 12.8884C4.50179 12.107 5.5616 11.668 6.66667 11.668H13.3333C14.4384 11.668 15.4982 12.107 16.2796 12.8884C17.061 13.6698 17.5 14.7296 17.5 15.8346V17.5013C17.5 17.9615 17.1269 18.3346 16.6667 18.3346C16.2064 18.3346 15.8333 17.9615 15.8333 17.5013V15.8346C15.8333 15.1716 15.5699 14.5357 15.1011 14.0669C14.6323 13.598 13.9964 13.3346 13.3333 13.3346H6.66667C6.00363 13.3346 5.36774 13.598 4.8989 14.0669C4.43006 14.5357 4.16667 15.1716 4.16667 15.8346V17.5013C4.16667 17.9615 3.79357 18.3346 3.33333 18.3346C2.8731 18.3346 2.5 17.9615 2.5 17.5013V15.8346C2.5 14.7296 2.93899 13.6698 3.72039 12.8884Z" fill="#686870"/>
<path fill-rule="evenodd" clip-rule="evenodd" d="M9.9987 3.33464C8.61799 3.33464 7.4987 4.45392 7.4987 5.83464C7.4987 7.21535 8.61799 8.33464 9.9987 8.33464C11.3794 8.33464 12.4987 7.21535 12.4987 5.83464C12.4987 4.45392 11.3794 3.33464 9.9987 3.33464ZM5.83203 5.83464C5.83203 3.53345 7.69751 1.66797 9.9987 1.66797C12.2999 1.66797 14.1654 3.53345 14.1654 5.83464C14.1654 8.13582 12.2999 10.0013 9.9987 10.0013C7.69751 10.0013 5.83203 8.13582 5.83203 5.83464Z" fill="#686870"/>
</svg>
